<svg width="291" height="128" viewBox="0 0 291 128" fill="none" xmlns="http://www.w3.org/2000/svg">
<path d="M14 111C14 105.089 14.4632 92.5144 14.9333 83.7421C15.4609 73.8999 16.5684 67.7225 16.9228 63.7976C17.3372 59.2083 17.9719 54.2442 18.793 49.5239C19.7537 44.0006 20.0772 39.4858 20.8982 35.7162C21.6925 32.0697 22.1825 28.1911 23.7018 24.4215C25.5217 19.9059 29.4246 15.6351 32.5825 14.2139C33.5868 13.7619 35.0246 14.0539 36.3193 14.8304C41.1645 17.7363 41.1298 23.4473 42.6491 27.3722C44.3903 31.8702 44.6386 36.6244 45.5754 40.394C46.582 44.4443 47.4456 48.8604 48.3825 52.7853C49.4567 57.2859 50.2526 61.7175 51.0737 66.5883C51.7751 70.7495 51.8947 75.8359 52.4772 80.7067C52.8281 84.9469 53.2982 89.9542 53.8807 96.3734C54 99.6488 54 105.24 54 111" stroke="black" stroke-width="11" stroke-linecap="round"/>
<path d="M23 58C26.2697 58 31.5395 57.34 34.7204 56.005C37.4671 54.67 40.9605 54 44.3684 53.17C45.3553 53 46.6579 53 48 53" stroke="black" stroke-width="11" stroke-linecap="round"/>
<path d="M69.5721 110.488C69.5721 110.178 69.5721 109.867 69.5721 100.387C69.5721 90.9081 69.5721 72.2693 69.4167 62.0462C69.2039 48.0373 68.0094 43.0498 68 23.3332C67.9975 18.1698 70.1934 16.3624 71.6007 14.7951C74.2326 11.8639 85.801 12.5876 93.4024 16.4895C100.064 19.9092 99.3752 26.6891 99.54 36.7098C99.6423 42.933 94.6873 48.3402 92.0186 51.7996C89.5304 55.0251 84.6525 55.5697 80.7271 56.6711C79.6555 56.9718 78.3831 56.8311 79.4515 56.8311C83.9371 56.8311 88.3897 57.1418 90.2677 57.7678C95.4643 59.5 99.3752 66.2258 101.258 70.3066C103.511 75.1911 102.519 92.4519 100.646 102.943C99.8181 107.58 94.066 109.848 90.2959 112.361C86.5258 114.254 82.7698 114.875 76.1851 114.729C74.9095 114.263 74.5989 113.331 74.2788 112.371" stroke="black" stroke-width="11" stroke-linecap="round"/>
<path d="M181 15C181 15.3108 181 15.6216 181 27.7465C181 39.8714 181 63.8011 181.136 76.5947C181.301 92.2321 182.363 95.971 183.46 99.7427C184.556 103.514 186.19 107.272 189.2 110.262C190.879 111.929 192.489 113.252 196.025 113.723C203.307 114.693 208.915 112.951 210.282 111.072C212.639 107.834 213.029 103.543 213.846 98.9893C214.664 94.4341 215.214 89.4165 215.628 84.8632C216.131 79.3514 216.856 71.8436 217 41.0203C216.314 30.7083 215.772 26.3197 214.811 21.9265C214.672 20.3585 214.672 18.1831 214.672 15.9417" stroke="black" stroke-width="11" stroke-linecap="round"/>
<path d="M149.146 110.793C147.576 111.339 144.43 112.992 130.799 113C127.85 113.002 127.081 112.182 126.418 111.491C123.855 108.821 121.829 102.296 120.626 97.3072C119.319 91.8849 118.658 86.8385 118.26 79.8248C117.644 68.9731 118.122 53.5104 119.699 48.2657C120.742 44.7998 121.277 40.285 122.984 33.5317C124.222 28.6329 126.008 24.8443 127.715 21.5338C129.423 18.2233 132.049 14.9252 135.069 12.5736C138.278 10.0753 143.074 10.7757 148.732 13.1067C152.854 14.8048 156.227 18.744 159.126 22.3356C161.65 25.4638 162.016 32.234 162.682 36.3876C163.217 39.7224 163.861 43.5417 163.999 69.0875C164.044 77.4685 162.3 82.3914 160.979 85.9829C159.781 89.2389 158.877 93.1371 157.694 96.7286C156.479 100.417 152.584 103.883 149.812 107.338C148.373 108.578 146.788 109.413 145.215 109.826C144.422 109.966 143.641 109.966 143.626 109.966" stroke="black" stroke-width="11" stroke-linecap="round"/>
<path d="M250.363 21.1736C250.363 21.3994 250.363 21.6252 250.363 29.1924C250.363 36.7596 250.363 51.6614 250.476 59.6767C250.631 70.6616 251.499 75.2114 251.845 88.2864C251.994 93.9442 252.867 97.1057 253.668 99.8459C254.442 102.497 254.468 105.316 255.036 108.056C255.153 108.744 255.153 109.421 255.266 110.109C255.378 110.796 255.604 111.474 255.837 112.172" stroke="black" stroke-width="11" stroke-linecap="round"/>
<path d="M230 15H276.126" stroke="black" stroke-width="11" stroke-linecap="round"/>
</svg>
