<svg width="151" height="144" viewBox="0 0 151 144" fill="none" xmlns="http://www.w3.org/2000/svg">
<path d="M72.5937 3.35837C72.5512 4.1592 71.2644 5.70927 64.2348 12.9839C47.8954 29.893 35.5365 44.7591 29.884 52.338C14.755 72.623 5.72756 78.8907 5.02888 80.478C4.46834 81.7515 16.5921 78.6882 31.9126 76.2582C41.8789 74.6774 55.415 73.0453 73.193 69.9365C95.6695 66.006 108.087 66.9081 129.576 67.0198C134.925 67.0476 139.379 66.5238 141.536 64.6305C154.984 52.8249 121.781 47.7765 115.349 42.7567C108.076 37.0813 103.139 32.1861 97.7034 27.42C94.2308 24.4128 88.021 19.2163 81.0361 13.3763C78.2859 10.9732 77.1483 9.70827 73.6783 5.84949" stroke="black" stroke-width="6" stroke-linecap="round"/>
<path d="M29.7104 77.7414C28.7327 96.1726 28.0796 131.194 30.5109 131.122C37.4537 130.917 47.1758 130.187 59.9306 130.249C83.9314 130.366 118.16 130.716 117.984 126.466C117.465 113.948 116.24 105.889 116.067 97.5626C115.965 95.7137 115.628 94.4913 115.667 89.8573C115.706 85.2234 116.131 77.2152 116.568 68.9642" stroke="black" stroke-width="6" stroke-linecap="round"/>
</svg>
