<svg width="250" height="128" viewBox="0 0 250 128" fill="none" xmlns="http://www.w3.org/2000/svg">
<path d="M12.6313 12.7976C12.6313 13.058 12.6313 13.3185 12.6313 22.1773C12.6313 31.036 12.6313 48.4852 12.7616 58.1253C12.9629 73.0268 14.4623 82.9891 15.1292 89.8551C15.5469 94.1561 17.0982 97.2263 17.4968 101.827C18.1558 105.915 18.6766 108.283 19.4658 109.857C19.7342 110.651 19.7342 111.432 20.5234 113.026" stroke="black" stroke-width="11" stroke-linecap="round"/>
<path d="M13.4205 60.1497H55.2482" stroke="black" stroke-width="11" stroke-linecap="round"/>
<path d="M55.2482 14.376C55.2482 14.8968 55.2482 26.3639 55.3784 43.9828C55.4724 56.7096 56.5582 66.7 56.9568 74.588C57.2255 79.9059 58.1366 83.5415 58.5352 87.7558C58.9126 91.7465 60.7568 98.5047 61.692 103.544C62.0826 105.118 62.6114 106.705 63.006 108.279C63.1402 109.072 63.1402 109.853 63.9294 110.658" stroke="black" stroke-width="11" stroke-linecap="round"/>
<path d="M104.146 14.207C102.576 13.6614 99.4299 12.0083 85.7989 12C82.8499 11.9982 82.0806 12.8183 81.4182 13.5085C78.8548 16.1794 76.8285 22.7043 75.6259 27.6928C74.3187 33.1151 73.6583 38.1615 73.2601 45.1752C72.6439 56.0269 73.1221 71.4896 74.6993 76.7343C75.7416 80.2002 76.2765 84.715 77.9838 91.4683C79.2223 96.3671 81.0081 100.156 82.7155 103.466C84.4228 106.777 87.0488 110.075 90.0692 112.426C93.2779 114.925 98.0735 114.224 103.732 111.893C107.854 110.195 111.227 106.256 114.126 102.664C116.65 99.5362 117.016 92.766 117.682 88.6124C118.217 85.2776 118.861 81.4583 118.999 55.9125C119.044 47.5315 117.3 42.6086 115.979 39.0171C114.781 35.7611 113.877 31.8629 112.694 28.2714C111.479 24.5825 107.584 21.1173 104.812 17.6621C103.373 16.4223 101.788 15.5874 100.215 15.1741C99.422 15.0336 98.6413 15.0336 98.6256 15.0336" stroke="black" stroke-width="11" stroke-linecap="round"/>
<path d="M134 106.329C134 106.053 134 105.777 134 93.7765C134 81.7759 134 58.0588 134.13 45.2894C134.294 29.163 135.308 25.2829 136.49 21.9359C136.8 21.0574 137.404 20.2687 138.062 19.5667C138.719 18.8647 139.499 18.3132 140.421 18.5806C144.813 19.8546 144.762 25.801 146.338 30.8194C147.609 34.8661 148.702 40.0078 149.754 44.3325C150.789 48.5905 151.065 52.8357 152.113 53.6756C155.298 56.2279 156.313 44.5039 157.762 40.6053C160.068 34.4048 160.52 29.1939 161.572 24.5851C162.384 21.0248 163.672 17.7616 165.377 14.4147C165.799 13.5878 166.035 12.7474 166.819 12.3212C167.603 11.895 168.903 11.895 169.963 12.3087C173.799 13.8062 175.49 16.8925 177.715 21.3426C182.047 30.0037 182.061 34.158 183.368 42.916C184.711 51.9052 184.424 59.7469 185.078 66.608C185.212 71.9982 185.472 76.511 185.866 83.2843C186 88.9545 186 99.1583 186 108" stroke="black" stroke-width="11" stroke-linecap="round"/>
<path d="M233.137 15.9544C230.785 15.9544 225.529 14.9127 221.445 13.5908C217.494 12.312 212.634 12.2768 208.553 12.3991C205.31 12.4963 206.304 19.6163 205.519 23.1756C204.568 27.4845 204.205 32.2435 203.806 36.3276C203.636 38.0721 203.147 39.6225 203.017 41.197C202.884 42.8137 202.358 57.1191 202.488 78.029C202.551 88.0662 203.937 92.7436 204.592 96.441C205.147 99.5775 206.036 103.272 206.565 107.356C207.346 109.064 216.737 109.869 230.545 109.609C235.497 109.348 236.278 108.828 237.083 108.291" stroke="black" stroke-width="11" stroke-linecap="round"/>
<path d="M206.304 60.1497C211 60.1497 220.494 59.6288 223.655 59.2303C224.448 59.1001 225.229 58.8396 226.543 58.7055C227.857 58.5713 229.68 58.5713 231.559 58.5713" stroke="black" stroke-width="11" stroke-linecap="round"/>
</svg>
