<svg width="241" height="128" viewBox="0 0 241 128" fill="none" xmlns="http://www.w3.org/2000/svg">
<path d="M38 110C38 108.759 38 91.6794 38.1578 66.149C38.2527 50.7978 39.5876 41.3988 40.0706 35.9186C40.5306 30.6996 41.5004 26.3588 42.7772 22.5941C43.0976 21.6494 43.4132 20.7188 44.207 20.3945C45.0008 20.0702 46.2633 20.3804 47.387 21.0055C52.0022 23.5727 52.9772 29.1412 60.7623 51.0056C63.743 59.3769 67.304 66.0832 69.5564 71.601C71.6027 76.6143 73.0616 81.7812 74.3383 85.5459C75.6151 89.3106 76.8871 93.0612 78.1639 96.8259C78.7999 98.7012 79.1251 100.901 79.2829 103.246C79.4407 104.351 79.7563 105.281 79.9189 91.1812C80.0815 77.0812 80.0815 47.9224 79.1251 16" stroke="black" stroke-width="11" stroke-linecap="round"/>
<path d="M94.7656 15.3245C94.7656 15.9468 94.7656 25.2916 94.9212 39.4313C94.988 45.498 95.7086 56.0888 95.8642 71.327C96.3309 78.1635 96.6516 88.1589 96.8071 101.827C96.9627 106.782 97.2739 107.716 97.5945 110.564" stroke="black" stroke-width="11" stroke-linecap="round"/>
<path d="M172.324 14C163.886 14 147.739 14.3178 146.008 15.2761C145.118 15.769 144.589 16.8701 144.267 27.373C143.946 37.876 143.946 57.8994 144.102 68.6913C144.36 86.5206 145.516 99.3718 145.994 104.356C146.198 106.485 147.096 108.377 148.037 109.981C151.504 111.594 160.273 112.239 171.147 111.921C175.153 111.604 176.089 110.968 178 109.35" stroke="black" stroke-width="11" stroke-linecap="round"/>
<path d="M147 63C147.311 63 147.622 63 151.984 63C156.345 63 164.747 63 173.403 63.943" stroke="black" stroke-width="11" stroke-linecap="round"/>
<path d="M215 14C215 16.8897 214.369 22.7079 210.877 31.7115C199.45 61.1821 200.977 68.5939 199.543 74.5818C197.561 82.8528 196.195 88.6473 194.918 93.4958C194.282 96.0752 193.641 98.6739 193.163 102.053C193 104.153 193 107.033 193 110" stroke="black" stroke-width="11" stroke-linecap="round"/>
<path d="M189 17C189 20.5642 189.626 27.7512 191.837 32.1575C195.095 38.6519 197.216 44.0642 199.583 49.2929C202.148 54.9594 206.684 61.0233 209.075 65.9436C211.137 70.1868 214.274 77.9825 216.508 83.5686C218.265 87.9604 219.663 94.0017 221.252 98.2561C222.518 102.178 223.78 105.115 224.885 107.069C225.364 108.053 225.677 109.022 226 111" stroke="black" stroke-width="11" stroke-linecap="round"/>
<path d="M95 13C99.3075 13 106.362 14.0443 109.617 15.4999C112.981 17.0043 116.115 18.7909 121.125 23.6602C124.01 26.4639 123.982 30.3886 124.933 33.6876C126.001 37.3938 125.884 41.1952 126.558 45.5464C127.755 53.2615 127.509 59.106 128.184 65.0552C129.361 75.4344 129.135 91.1777 128.326 100.802C128.039 104.221 124.811 107.127 120.483 111.347C117.56 114.198 112.36 113.993 107.89 114.919C106.134 115.053 103.452 115.053 101.803 114.662C100.153 114.27 99.6163 113.487 99.0637 110.307" stroke="black" stroke-width="11" stroke-linecap="round"/>
<path d="M15 17C15 29.1363 15.6219 53.7291 16.0977 63.7595C16.3693 69.4844 17.5064 75.0807 17.9822 82.4585C18.3604 88.3224 19.3909 93.9258 20.6488 98.0199C21.5958 102.726 21.9067 107.447 22.3779 109.482C22.5381 110.585 22.5381 111.829 23.4803 112.168" stroke="black" stroke-width="11" stroke-linecap="round"/>
</svg>
